      <svg xmlns="http://www.w3.org/2000/svg" viewBox="0,0 200,200">        <polygon fill="#b81414" points="100, 0 113.29693, 16.04649 130.9017, 4.89435 138.58919, 24.26445 158.77853, 19.0983 160.10408, 39.89592 180.9017, 41.22147 175.73555, 61.41081 195.10565, 69.0983 183.95351, 86.70307 200, 100 183.95351, 113.29693 195.10565, 130.9017 175.73555, 138.58919 180.9017, 158.77853 160.10408, 160.10408 158.77853, 180.9017 138.58919, 175.73555 130.9017, 195.10565 113.29693, 183.95351 100, 200 86.70307, 183.95351 69.0983, 195.10565 61.41081, 175.73555 41.22147, 180.9017 39.89592, 160.10408 19.0983, 158.77853 24.26445, 138.58919 4.89435, 130.9017 16.04649, 113.29693 0, 100 16.04649, 86.70307 4.89435, 69.0983 24.26445, 61.41081 19.0983, 41.22147 39.89592, 39.89592 41.22147, 19.0983 61.41081, 24.26445 69.0983, 4.89435 86.70307, 16.04649" />      </svg>    